<svg version="1.2" xmlns="http://www.w3.org/2000/svg" viewBox="0 0 1642 87" width="1642" height="87">
	<title>logo-banner</title>
	<style>
		.s0 { fill: #ffffff } 
	</style>
	<path id="L" class="s0" aria-label="L"  d="m61.9 70.5l-46.6-0.1 0.1-69h-14.9l-0.2 81 61.6 0.1z"/>
	<path id="A" class="s0" aria-label="A"  d="m261 1.8h-14.2l-39.1 80.9 15.7 0.1 8.1-17.7h43.8l8 17.8h16.7zm-7.4 15.1l16.7 36.9h-33.7z"/>
	<path id="M" class="s0" aria-label="M"  d="m539.4 52.2l-0.1 31.2h15.1l0.2-81h-22.5l-26.8 64.5-27.2-64.6-22.6-0.1-0.1 81 14.9 0.1 0.1-31.2-0.8-35.2 29.4 66.4h12.6l28.7-66.3z"/>
	<path id="R" class="s0" aria-label="R"  d="m748.5 2.8l-39-0.1-0.1 81 14.9 0.1 0.1-31.5h19.6l23.1 31.6h18l-24.7-32.7c5.2-1.2 9.4-2.9 12.6-5.6 5.6-4.5 8.4-10.5 8.4-18 0.1-17.3-14.3-24.8-32.9-24.8zm-0.1 37.5h-24l0.1-25.5h24c10.1 0 17.3 3.1 17.3 12.8-0.1 9.7-7.3 12.7-17.4 12.7z"/>
	<path id="E" class="s0" aria-label="E"  d="m942.6 3.2l-0.2 81 65.9 0.1 0.1-12-51-0.1v-23.3l45.7 0.1v-12l-45.7-0.1 0.1-21.7 51 0.1v-12z"/>
	<path id="L" class="s0" aria-label="L"  d="m1224 72.8l-46.6-0.1 0.1-69-14.9-0.1-0.2 81 61.6 0.2z"/>
	<path id="A" class="s0" aria-label="A"  d="m1602.2 4.5h-14.3l-39.1 80.9 15.7 0.1 8.1-17.8 43.8 0.1 8 17.8h16.7zm-7.3 15.1l16.6 36.9h-33.7z"/>
	<path id="I" class="s0" aria-label="I"  d="m1376.3 2.1l-0.1 81h14.9l0.2-81z"/>
</svg>