<svg version="1.2" xmlns="http://www.w3.org/2000/svg" viewBox="0 0 1602 87" width="1602" height="87">
	<title>logo-banner</title>
	<style>
		.s0 { fill: #ffffff } 
	</style>
	<path id="L" class="s0" aria-label="L"  d="m132.1 71h-46.6v-69h-15v81h61.6z"/>
	<path id="A" class="s0" aria-label="A"  d="m307.1 2h-14.2l-39 81h15.7l8-17.7h43.8l8.1 17.7h16.7zm-7.3 15.1l16.7 36.9h-33.7z"/>
	<path id="M" class="s0" aria-label="M"  d="m552.5 51.8v31.2h15.1v-81h-22.4l-26.7 64.6-27.4-64.6h-22.6v81h15v-31.2l-0.9-35.2 29.6 66.4h12.6l28.6-66.4z"/>
	<path id="R" class="s0" aria-label="R"  d="m736.5 2h-39v81h15v-31.5h19.6l23.2 31.5h18l-24.8-32.7c5.2-1.1 9.4-2.9 12.6-5.5 5.6-4.6 8.4-10.6 8.4-18 0-17.3-14.4-24.8-33-24.8zm0 37.5h-24v-25.5h24c10.1 0 17.3 3.1 17.3 12.8 0 9.6-7.2 12.7-17.3 12.7z"/>
	<path id="E" class="s0" aria-label="E"  d="m904.5 2v81h66v-12h-51v-23.3h45.7v-12h-45.7v-21.7h51v-12z"/>
	<path id="L" class="s0" aria-label="L"  d="m1165.1 71h-46.6v-69h-15v81h61.6z"/>
	<path id="A" class="s0" aria-label="A"  d="m1489.1 2h-14.2l-39 81h15.7l8-17.7h43.8l8.1 17.7h16.7zm-7.3 15.1l16.7 36.9h-33.7z"/>
	<path id="I" class="s0" aria-label="I"  d="m1309.3 2v81h14.9v-81z"/>
</svg>